<?xml version="1.0" encoding="UTF-8"?>
<svg width="140px" viewBox="0 0 140 72" version="1.1" xmlns="http://www.w3.org/2000/svg" xmlns:xlink="http://www.w3.org/1999/xlink">
    <title>eierlegende-Wollmilchsau</title>
    <g id="eierlegende-Wollmilchsau" stroke="none" stroke-width="1" fill="none" fill-rule="evenodd">
        <g id="sheep-legs" transform="translate(25.000000, 48.000000)">
            <polygon id="Fill-1" fill="#5B5047" points="3.28150573 22.2913257 5.47463175 22.2913257 7.71685761 1.34206219 6.97750641e-15 0"></polygon>
            <polygon id="Fill-2" fill="#4A4847" points="3.09328969 21.01473 3.28150573 22.2913257 5.47463175 22.2913257 5.60556465 21.01473"></polygon>
            <polygon id="Fill-3" fill="#5B5047" points="8.62520458 3.45335516 10.2209493 22.2913257 11.2929624 22.2913257 12.3649755 22.2913257 14.6563011 3.45335516"></polygon>
            <path d="M10.0981997,20.8837971 L10.212766,22.2913257 L12.3567921,22.2913257 L12.512275,20.9983633 C11.710311,20.9738134 10.908347,20.9410802 10.0981997,20.8837971" id="Fill-4" fill="#4A4847"></path>
            <polygon id="Fill-6" fill="#5B5047" points="33.2394763 0.00687397709 36.520982 22.2900164 38.7059247 22.2900164 40.9563339 1.34075286"></polygon>
            <polygon id="Fill-9" fill="#4A4847" points="36.3256956 21.01473 36.5139116 22.2913257 38.7070376 22.2913257 38.8461538 21.01473"></polygon>
            <polygon id="Fill-11" fill="#5B5047" points="41.8646809 3.45204583 43.4522422 22.2900164 45.5962684 22.2900164 47.8957774 3.45204583"></polygon>
            <path d="M43.3387889,20.8837971 L43.4533552,22.2913257 L45.5973813,22.2913257 L45.7528642,20.9983633 C44.9509002,20.9738134 44.1407529,20.9410802 43.3387889,20.8837971" id="Fill-14" fill="#4A4847"></path>
        </g>
        <g id="cow" transform="translate(46.000000, 51.000000)" fill="#FF8979">
            <path d="M-2.32583547e-15,2.1302471 L16.7815556,5.81458867e-15 L16.7947735,0.0818759995 C16.8677826,0.563894377 17.1843047,3.0902876 16.2138367,5.41631425 L16.2732066,5.46856209 C16.7632236,5.90529459 17.5917782,6.78185513 17.1135759,7.36631121 C16.7304142,7.84178675 16.0255826,7.26237727 15.5103263,6.70492281 C15.1579919,7.21018635 14.7196267,7.68129854 14.1763484,8.09005293 L14.2228817,8.14612804 C14.7288135,8.76084697 15.3624413,9.69920636 14.6916882,9.88112821 C14.0382099,10.0583648 13.3989235,9.32307319 13.0266609,8.77726008 L13.0273367,8.77773396 C12.7527621,8.90632016 12.459235,9.02193087 12.1454956,9.12271794 L12.1561102,9.17307603 C12.3062144,9.89856612 12.3645037,10.7754931 11.7990265,10.8660727 C11.1845035,10.9599558 10.9267512,10.0925341 10.8200647,9.43544213 C10.3705196,9.50835133 9.88767131,9.55504807 9.36987184,9.57263354 L9.63429194,9.56087879 L9.64055994,9.65726585 C9.68469385,10.4194892 9.60576207,11.3342537 8.95408647,11.241375 C8.26552619,11.1432392 8.13165093,10.2321899 8.12799063,9.56328502 C7.60089344,9.53627567 7.10794545,9.47941243 6.64693206,9.39692261 L6.63344985,9.44615073 C6.43020441,10.1788496 6.08189486,11.0132444 5.5857315,10.7817413 C5.07698629,10.5448366 5.20925654,9.72057923 5.40045566,9.09046993 C4.90930645,8.93380639 4.46278278,8.74468978 4.0568148,8.53066608 L4.02312698,8.59960964 C3.67370837,9.30692245 3.1720511,10.0797336 2.77197429,9.73149199 C2.34476007,9.35578573 2.69134225,8.4832462 3.01973687,7.86964299 C2.83977455,7.73299248 2.67076155,7.59092564 2.51178687,7.44484867 L2.479222,7.48411175 C2.00924766,8.04561 1.40356187,8.54559691 0.967954366,8.10823978 C0.444469007,7.58265181 0.99367085,6.75638557 1.45510889,6.23117287 C0.272977761,4.53134992 0.0480655024,2.72618559 0.00812938412,2.25061599 L0.00192613399,2.16643923 L-2.32583547e-15,2.1302471 Z" id="utter"></path>
        </g>
        <g id="hen" transform="translate(55.000000, 10.000000)">
            <g id="eggs" transform="translate(19.578560, 48.872340)">
                <g id="egg" transform="translate(11.129296, 1.391162)">
                    <g id="Group-3" fill="#F2C48D">
                        <path d="M4.94680851,9.09574468 C2.40180033,9.26759411 0.200490998,7.3690671 0.0286415712,4.85679214 C-0.143207856,2.35270049 1.78805237,0.184124386 4.33306056,0.0122749591 C6.87806874,-0.159574468 11.5671031,1.57528642 11.7389525,4.07937807 C11.910802,6.58346972 7.49181669,8.92389525 4.94680851,9.09574468" id="Fill-1_1_"></path>
                    </g>
                    <path d="M8.87479542,2.07446809 C9.28396072,2.27905074 9.63584288,2.54091653 9.94680851,2.86824877 C10.1350245,3.06464812 10.4378069,2.7700491 10.2495908,2.57364975 C9.91407529,2.22176759 9.5212766,1.93535188 9.08756137,1.71440262 C8.84206219,1.58346972 8.62929624,1.95171849 8.87479542,2.07446809" id="Fill-6_1_" fill="#FFFFFF"></path>
                    <path d="M10.4705401,2.94189853 C10.4623568,2.94189853 10.4459902,2.94189853 10.4378069,2.94189853 C10.3232406,2.95008183 10.2168576,3.03191489 10.2250409,3.15466448 C10.2332242,3.26104746 10.3232406,3.37561375 10.4378069,3.36743044 C10.4459902,3.36743044 10.4623568,3.36743044 10.4705401,3.36743044 C10.5851064,3.35924714 10.6914894,3.27741408 10.6833061,3.15466448 C10.6833061,3.04828151 10.5932897,2.94189853 10.4705401,2.94189853" id="Fill-8_1_" fill="#FFFFFF"></path>
                    <path d="M10.6342062,6.43617021 C9.16121113,7.58183306 7.0908347,8.39198036 5.62602291,8.49018003 C3.08101473,8.66202946 0.879705401,6.76350245 0.707855974,4.2512275 C0.626022913,2.96644845 1.09247136,1.76350245 1.91898527,0.879705401 C0.683306056,1.77168576 -0.0777414075,3.24468085 0.0286415712,4.85679214 C0.200490998,7.3608838 2.40180033,9.2594108 4.94680851,9.09574468 C6.65711948,8.9811784 9.19394435,7.89279869 10.6342062,6.43617021" id="Fill-4_1_" fill="#E3B884"></path>
                </g>
                <g id="egg">
                    <path d="M8.74386252,4.75859247 C9.72585925,7.04173486 8.70294599,9.69312602 6.45253682,10.6914894 C4.21031097,11.6898527 1.59983633,10.6423895 0.617839607,8.36743044 C-0.355973813,6.08428805 -0.290507365,1.19885434 1.95171849,0.200490998 C4.19394435,-0.789689034 7.7700491,2.47545008 8.74386252,4.75859247" id="Fill-10" fill="#FFDEB6"></path>
                    <path d="M1.04337152,3.46563011 C1.09247136,3.04828151 1.22340426,2.64729951 1.41162029,2.27086743 C1.53436989,2.03355155 1.17430442,1.8207856 1.05973813,2.05810147 C0.838788871,2.5 0.699672668,2.96644845 0.634206219,3.46563011 C0.593289689,3.73567921 1.0106383,3.72749591 1.04337152,3.46563011" id="Fill-14_1_" fill="#FFFFFF"></path>
                    <path d="M1.33797054,1.77986907 C1.34615385,1.78805237 1.34615385,1.80441899 1.35433715,1.81260229 C1.39525368,1.91080196 1.5507365,1.94353519 1.63256956,1.88625205 C1.73895254,1.8207856 1.75531915,1.70621931 1.70621931,1.59983633 C1.69803601,1.59165303 1.69803601,1.57528642 1.6898527,1.56710311 C1.64893617,1.46890344 1.49345336,1.43617021 1.41162029,1.49345336 C1.30523732,1.5589198 1.2888707,1.67348609 1.33797054,1.77986907" id="Fill-16" fill="#FFFFFF"></path>
                    <path d="M4.47217676,0.429623568 C6.00245499,1.39525368 7.41816694,3.03191489 7.97463175,4.34124386 C8.95662848,6.62438625 7.93371522,9.27577741 5.68330606,10.2741408 C4.5294599,10.789689 3.27741408,10.7569558 2.19721768,10.2986907 C3.41653028,11.1333879 5.01227496,11.3379705 6.45253682,10.6996727 C8.69476268,9.70130933 9.71767594,7.04991817 8.74386252,4.76677578 C8.08919804,3.22831424 6.27250409,1.26432079 4.47217676,0.429623568" id="Fill-12" fill="#F6CD9B"></path>
                </g>
                <g id="egg" transform="translate(6.546645, 0.000000)">
                    <path d="M8.46563011,7.35270049 C8.35106383,9.89770867 6.37070376,11.8698854 4.03846154,11.7471358 C1.70621931,11.6243863 -0.0941080196,9.45581015 0.0204582651,6.91080196 C0.13502455,4.35761047 2.2299509,-0.102291326 4.56219313,0.0204582651 C6.88625205,0.143207856 8.5801964,4.799509 8.46563011,7.35270049" id="Fill-18_1_" fill="#FFCE95"></path>
                    <path d="M2.41816694,2.61456628 C2.6391162,2.25450082 2.9091653,1.93535188 3.22831424,1.68166939 C3.42471358,1.51800327 3.23649755,1.1497545 3.03191489,1.31342062 C2.65548282,1.61620295 2.33633388,1.97626841 2.08265139,2.40180033 C1.93535188,2.6309329 2.27905074,2.84369885 2.41816694,2.61456628" id="Fill-22" fill="#FFFFFF"></path>
                    <path d="M3.37561375,1.16612111 C3.37561375,1.17430442 3.37561375,1.19067103 3.37561375,1.19885434 C3.36743044,1.31342062 3.47381342,1.4198036 3.57201309,1.41162029 C3.68657938,1.40343699 3.76022913,1.32160393 3.76841244,1.19885434 C3.76841244,1.19067103 3.76841244,1.17430442 3.76841244,1.16612111 C3.77659574,1.05155483 3.67021277,0.945171849 3.57201309,0.953355155 C3.45744681,0.961538462 3.38379705,1.05155483 3.37561375,1.16612111" id="Fill-24_1_" fill="#FFFFFF"></path>
                    <path d="M6.61620295,1.38707038 C7.51636661,2.98281506 8.04828151,5.13502455 7.98281506,6.59983633 C7.86824877,9.14484452 5.88788871,11.1170213 3.55564648,10.9942717 C2.35270049,10.9288052 1.29705401,10.3232406 0.568739771,9.40671031 C1.25613748,10.7405892 2.54091653,11.6653028 4.03846154,11.7389525 C6.37070376,11.8617021 8.35106383,9.89770867 8.46563011,7.34451718 C8.53927987,5.64238953 7.81096563,2.99099836 6.61620295,1.38707038" id="Fill-20_1_" fill="#EDC08A"></path>
                </g>
            </g>
            <g id="bum" transform="translate(22.539198, 17.842813) rotate(-10.000000) translate(-22.539198, -17.842813) translate(2.039198, 4.342813)" fill-rule="nonzero">
                <path d="M35.9126796,3.00570068 C33.7329051,1.79088687 30.3739082,1.89807632 27.9439955,1.43358869 C26.4937699,1.09357567 25.0900417,0.789866753 23.5803165,0.83560264 C21.3211785,0.90404137 18.2046172,2.2693581 14.2306326,4.93155283 C7.17881779,4.76670964 2.5491017,4.19825198 0.341484369,3.22617985 C0.27001635,11.3725784 0.142936038,15.3682177 -9.30334188e-14,23.5146162 C9.00497042,27.3734366 16.7235165,27.4448962 24.9423387,21.7995849 C27.5866554,20.227473 30.3739082,18.5481715 32.6608848,16.5115719 C33.7329051,15.6540563 35.3052015,14.1891337 35.8054776,13.0100497 C36.3057537,11.8309657 35.6625416,10.4732326 36.0198817,9.50852756 C36.5201578,7.43619811 38.9143364,4.79219158 35.9126796,3.00570068 Z" id="Path" fill="#E5E3E3"></path>
                <path d="M22.5501133,10.5646893 C23.2454084,10.8514046 23.9798882,11.0319501 24.7289068,11.1002673 C25.4848918,11.1569266 26.2435894,11.0345996 26.9434183,10.7432153 C27.2945778,10.5649296 27.6000812,10.3083982 27.8363665,9.99340611 C28.0288968,9.72234532 28.1738407,9.42048644 28.2649816,9.10077608 C28.9254869,9.21422511 30.8830021,9.37334268 32.3725432,8.52949287 C33.0192347,8.15236323 33.5408747,7.59366242 33.8726962,6.92275882 C34.1798462,6.31215053 34.3603685,5.76050056 34.3826424,5.07740417 C36.6118806,5.33544888 37.7643729,5.10241317 39.1105279,4.12450541 C40.4566829,3.14659764 40.7907201,1.9590654 40.8385564,0.804163689 C39.4792853,1.20847738 37.603719,1.84875635 34.3727345,2.01151178 C31.1417499,2.17426721 29.1734522,1.64046977 27.780453,1.46194377 L25.0605462,0.982350803 C24.3756929,0.885963315 24.2932042,0.553988915 23.6216511,0.388707038 C24.2926567,0.565642504 23.4184397,10.5691363 22.7644208,10.3147529 C22.086943,10.0512451 21.8780884,10.2875699 22.5501133,10.5646893 Z" id="Path" fill="#8F8F8F"></path>
                <path d="M24.4750283,0.474017805 C28.8530624,2.03539028 33.7887367,2.34698212 39.2820512,1.40879333 C39.6726853,1.33583896 40.0742564,1.2530839 40.4856575,1.15951831 L40.5932836,1.13484507 C40.4351955,2.03140696 39.9133346,3.34162481 38.0326389,3.93444449 C36.7788418,4.32965761 35.3298638,4.49656566 33.685705,4.43516864 C33.5970391,5.99834832 32.8324109,7.19305123 31.3918206,8.01927737 C29.9512303,8.8455035 28.4030885,8.94645393 26.7473952,8.32212866 C27.2280368,9.5746798 27.2576599,10.2983966 26.8362645,10.4932789 C26.6671562,10.5714863 26.1678722,10.7099263 26.1694005,10.7753982 C24.3429744,11.4332757 14.6901869,-2.72420817 24.4750283,0.474017805 Z" id="Path" fill="#C1C1C1"></path>
            </g>
        </g>
        <g id="sheep-body" transform="translate(14.000000, 10.000000)">
            <path d="M5.38461538,26.1415712 C5.38461538,26.1415712 -2.74140753,23.9729951 2.44680851,31.4770867 C2.44680851,31.4770867 -3.30605565,35.6423895 2.8396072,36.1988543 C2.8396072,36.1988543 0.376432079,43.9811784 5.38461538,43.3101473 C10.3927987,42.6472995 10.4746318,39.2927987 10.4746318,39.2927987 C10.4746318,39.2927987 10.3518822,43.2617021 12.3567921,43.4253682 C14.3617021,43.5890344 16.3747954,42.1399345 16.3747954,42.1399345 C16.3747954,42.1399345 16.7839607,46.3052373 19.5335516,45.9779051 C22.2831424,45.6423895 22.99509,42.6479542 22.99509,42.6479542 C22.99509,42.6479542 22.8314239,47.9671031 25.8592471,47.7216039 C28.6456979,47.4956755 29.8322773,45.8044589 29.4189853,42.6479542 C30.8046918,45.3698309 32.2940535,46.6434806 33.8870704,46.4689034 C36.0392799,46.2397709 37.2831424,44.2757774 37.4795417,43.9729951 C37.4795417,43.9729951 38.4042553,48.4247136 41.2602291,47.8682488 C44.1243863,47.311784 44.9754501,43.809329 44.9754501,43.809329 C44.9754501,43.809329 45.3927987,48.1873977 49.00982,47.9173486 C49.787234,47.8600655 50.4255319,47.4918167 50.6055646,47.3690671 C52.2667758,46.2725041 52.299509,44.1448445 52.299509,43.9075286 C53.2160393,45.306874 54.6235679,45.9451718 55.6710311,45.5769231 C55.8837971,45.5032733 56.309329,45.306874 56.685761,44.7340426 C57.3404255,45.3314239 58.0687398,45.896072 58.9279869,46.108838 C60.4828151,46.5016367 61.7184943,45.4214403 61.8494272,43.8747954 C61.9148936,43.113748 61.7348609,42.3608838 61.5630115,41.6162029 C62.7905074,42.2135843 64.1571195,42.7291326 65.4909984,42.4590835 C66.8248773,42.1890344 68.0196399,40.8306056 67.6268412,39.5212766 C67.8477905,40.2495908 70.5155483,39.4230769 70.8510638,39.0302782 C71.5711948,38.1873977 71.3584288,36.6080196 70.8510638,35.7160393 C72.299509,36.4525368 74.2471358,35.6178396 74.9099836,34.1366612 C75.5810147,32.6554828 75.0572831,30.8060556 73.8788871,29.6849427 C75.0081833,29.0711948 75.7201309,27.7536825 75.6055646,26.4770867 C75.5237316,25.4869067 74.8281506,23.9157119 73.6661211,23.8829787 C74.3126023,23.6211129 74.7545008,22.9255319 74.7217676,22.2299509 C74.6890344,21.5343699 74.1734861,20.8878887 73.502455,20.6833061 C74.6890344,20.3968903 74.9018003,18.6129296 74.0998363,17.688216 C73.2978723,16.7635025 71.9721768,16.5343699 70.7528642,16.4607201 C71.9639935,16.2806874 72.6677578,14.7913257 72.3076923,13.6211129 C71.9476268,12.4509002 70.801964,11.6571195 69.6153846,11.3707038 C70.9656301,10.6914894 71.6612111,9.38216039 71.391162,8.30196399 C71.1783961,7.45908347 70.4500818,7.00900164 70.3191489,6.92716858 C69.5090016,6.45253682 68.4697218,6.47708674 67.5859247,7.00081833 C68.4942717,5.77332242 67.6186579,3.8502455 66.202946,3.26923077 C64.787234,2.68821604 63.1505728,3.11374795 61.8003273,3.82569558 C62.3240589,2.49181669 61.1456628,0.871522095 59.7217676,0.75695581 C58.289689,0.642389525 56.9476268,1.80441899 56.6202946,3.20376432 C56.5139116,1.61620295 55.0409165,0.200490998 53.4533552,0.282324059 C51.8657938,0.364157119 50.5155483,2.04991817 50.8919804,3.59656301 C50.7446809,2.3608838 49.5499182,1.34615385 48.3060556,1.38707038 C47.0621931,1.42798691 45.9492635,2.52454992 45.8837971,3.76841244 C45.9328969,2.76186579 45.5155483,1.19885434 44.6563011,0.585106383 C43.4042553,-0.306873977 42.1767594,0.994271686 41.0556465,1.65711948 C40.5482815,0.388707038 38.9607201,-0.21685761 37.6350245,0.102291326 C36.309329,0.421440262 35.2536825,1.47708674 34.6072013,2.67184943 C34.1325696,1.23977087 32.5286416,0.282324059 31.0392799,0.544189853 C29.5499182,0.814238953 28.3797054,2.27086743 28.4369885,3.77659574 C27.3649755,3.27741408 26.1292962,3.15466448 24.9754501,3.40834697 C24.7626841,3.45744681 24.5417349,3.53109656 24.4026187,3.70294599 C24.2471358,3.89934534 24.2553191,4.18576105 24.2635025,4.43944354 C24.3207856,5.38870704 24.3780687,6.33797054 24.4353519,7.29541735 C23.6333879,6.61620295 22.5368249,6.29705401 21.497545,6.44435352 C21.3420622,7.99918167 22.1685761,11.2725041 23.9770867,11.698036 C23.9443535,11.6898527 15.7937807,9.75040917 15.5400982,11.698036 C15.2864157,13.6456628 16.1292962,16.3134206 16.1292962,16.3134206 C16.1292962,16.3134206 11.3502455,12.4754501 10.0736498,14.3085106 C8.7888707,16.1415712 9.27986907,20.0040917 9.27986907,20.0040917 C9.27986907,20.0040917 7.38134206,17.6554828 5.56464812,18.1301146 C4.92635025,18.2937807 4.54991817,18.7274959 4.45171849,18.8420622 C2.62684124,20.896072 5.2700491,25.9369885 5.38461538,26.1415712 Z" id="Fill-16-Copy" fill="#C1C1C1"></path>
            <path d="M37.8477905,0.994271686 C38.101473,0.945171849 38.7070376,0.838788871 39.3289689,1.14157119 C40.3273322,1.63256956 40.5646481,2.79459902 40.5973813,2.98281506 C40.6710311,2.86006547 41.603928,1.41162029 42.9869067,1.4198036 C44.4435352,1.4198036 45.9819967,3.0400982 45.908347,5.29050736 C45.908347,3.84206219 46.7348609,2.61456628 47.806874,2.29541735 C49.2471358,1.86170213 51.2274959,3.0400982 51.5302782,5.19230769 C51.2602291,3.08919804 52.3813421,1.41162029 53.4860884,1.21522095 C54.7135843,1.00245499 56.5957447,2.46726678 56.710311,4.96317512 C56.7839607,4.49672668 57.0785597,2.98281506 58.3797054,2.11538462 C58.6824877,1.91898527 59.1162029,1.62438625 59.6644845,1.68166939 C60.4828151,1.77168576 61.0392799,2.59001637 61.2356792,3.1710311 C61.5711948,4.19394435 60.8428805,5.08657938 60.0818331,6.29705401 C62.0294599,4.27847791 63.9770867,3.07283142 65.507365,3.67021277 C65.6546645,3.72749591 66.497545,4.07119476 66.8330606,4.91407529 C67.2667758,5.99427169 66.7021277,7.46726678 65.3436989,8.53109656 C66.2131751,7.99165303 68.5679214,6.74713584 69.6890344,7.41816694 C69.8363339,7.50818331 70.4746318,7.9091653 70.6055646,8.62111293 C70.8183306,9.72585925 69.7299509,11.1497545 67.7495908,11.8780687 C68.9198036,11.4198036 70.1718494,11.6734861 70.908347,12.4836334 C70.9819967,12.5654664 71.6612111,13.3346972 71.5220949,14.2675941 C71.3420622,15.4705401 69.8281506,16.5425532 67.8396072,16.4361702 C68.7070376,16.3788871 70.400982,16.403437 72.0130933,17.4263502 C72.4631751,17.712766 73.797054,18.5556465 73.6579378,19.3330606 C73.5270049,20.0777414 72.0294599,20.601473 69.9754501,20.6260229 C71.8412439,20.7569558 73.396072,21.2397709 73.5106383,21.9517185 C73.6415712,22.7536825 71.9721768,23.9402619 69.2962357,24.7013093 C71.4893617,23.9648118 73.4779051,24.2430442 74.1898527,25.2086743 C74.6644845,25.8551555 74.705401,26.591653 74.705401,26.591653 C74.7463175,27.2545008 74.5090016,27.7454992 74.410802,27.9337152 C73.8297872,29.0957447 72.5859247,29.4558101 72.3404255,29.5212766 C73.4288052,30.0286416 74.1571195,31.0106383 74.2144026,32.0744681 C74.2553191,32.7864157 74.00982,33.5883797 73.4942717,34.0548282 C72.3977087,35.0450082 69.8854337,34.6440262 67.512275,32.7045827 C70.106383,35.2414075 71.0392799,37.7700491 70.2864157,38.6865794 C69.386252,39.7831424 66.1292962,38.4983633 65.9738134,38.4328969 C66.1538462,38.9811784 66.6448445,40.6914894 65.8837971,41.4361702 C65,42.3036007 62.5040917,41.7635025 59.9427169,39.5294599 C61.4648118,41.3952537 61.6448445,43.4983633 60.7119476,44.5458265 C60.6219313,44.6440262 59.9918167,45.2577741 59.1489362,45.2414075 C57.7741408,45.2168576 56.3584288,43.5720131 55.9738134,41.0842881 C56.3175123,43.2610475 56.2356792,44.4639935 55.7364975,44.6849427 C55.0490998,44.9795417 53.5761047,43.4738134 51.3256956,40.1677578 C52.6186579,43.1873977 51.2520458,46.0270049 49.6890344,46.4934534 C48.207856,46.9353519 45.7364975,45.5032733 44.9181669,42.6227496 C44.1489362,44.1693944 43.4451718,45.2905074 42.8232406,45.9697218 C42.3977087,46.4361702 41.8330606,46.8453355 41.0883797,46.992635 C39.5662848,47.287234 38.3551555,45.7487725 37.4713584,42.3772504 C37.1440262,42.9582651 35.8428805,45.1186579 34.0261866,45.1350245 C32.6841244,45.1432079 31.7184943,44.0466448 30.2209493,42.3527005 C29.0016367,40.9615385 28.2242226,39.6440262 27.7495908,38.7274959 C28.0032733,39.292144 28.3224223,40.1595745 28.5188216,41.2561375 C28.8052373,42.900982 29.0507365,44.2594108 28.2324059,45.2823241 C27.4959083,46.1988543 26.0229133,46.7062193 24.9263502,46.2561375 C23.1833061,45.5360065 23.1751227,42.712766 23.1751227,41.7880524 C23.1751227,40.4869067 23.502455,39.4558101 23.7561375,38.8338789 C22.1440262,42.6145663 19.7299509,44.5703764 18.4860884,44.1202946 C17.3813421,43.7193126 16.8903437,41.2643208 17.2831424,38.3919804 C15.7610475,41.2479542 13.6006547,42.9337152 12.405892,42.5245499 C11.1129296,42.0826514 10.3191489,38.9648118 11.5548282,35.0450082 C11.0310966,36.910802 10.2782324,38.2855974 9.70540098,39.1775777 C8.46153846,41.108838 7.45499182,41.6653028 7.17675941,41.8207856 C6.68576105,42.0908347 6.10474632,42.2954173 5.400982,42.4018003 L5.26186579,42.4181669 C0.949263502,42.9909984 3.71522095,36.4934534 3.71522095,36.4934534 C3.71522095,36.4934534 3.94435352,35.9615385 4.3289689,35.2823241 C3.99345336,35.3477905 3.53518822,35.3559738 2.92962357,35.2986907 C-1.70212766,34.8813421 2.99509002,32.2299509 2.99509002,32.2299509 C2.99509002,32.2299509 3.37152209,32.0171849 3.87070376,31.804419 C3.65793781,31.5671031 3.44517185,31.2888707 3.21603928,30.9615385 C0.139116203,26.50982 5.16366612,27.0335516 5.16366612,27.0335516 L7.86415712,27.3199673 L6.05564648,25.5032733 C6.05564648,25.5032733 4.52536825,23.9729951 4.28805237,22.0908347 C4.18166939,21.2397709 4.36988543,20.3232406 5.14729951,19.4558101 C6.72667758,17.712766 8.57610475,20.5851064 8.57610475,20.5851064 L10.8183306,24.0548282 L10.2045827,19.8895254 C10.2045827,19.8895254 9.69721768,16.4689034 10.8346972,14.8322422 C11.9230769,13.2774141 15.5646481,17.0253682 15.5646481,17.0253682 L18.1996727,19.7340426 L17.0130933,16.0351882 C17.0130933,16.0351882 16.2602291,13.6947627 16.4484452,11.9271686 C16.4648118,11.9189853 16.4893617,11.910802 16.5057283,11.9026187 C17.0540098,11.698036 17.5531915,11.7225859 17.8477905,11.7471358 C18.3715221,11.7798691 20.8265139,12.0008183 24.1816694,12.3854337 C22.3977087,8.47381342 22.2176759,7.48363339 22.4304419,7.35270049 C22.5450082,7.28723404 22.8641571,7.42635025 23.1833061,7.57364975 C23.4779051,7.70458265 23.6988543,7.86824877 23.8461538,7.99099836 L25.4828151,9.3903437 L25.188216,4.3903437 C25.188216,4.37397709 25.106383,4.30851064 25.1309329,4.27577741 C25.1391162,4.2594108 25.188216,4.30851064 25.188216,4.30851064 C25.5810147,4.23486088 26.0801964,4.17757774 26.6530278,4.22667758 C27.9705401,4.33306056 28.9361702,4.89770867 29.4189853,5.24140753 C29.3617021,5.0613748 28.9116203,3.42471358 29.8854337,2.27086743 C30.0327332,2.099018 30.4664484,1.58346972 31.2111293,1.44435352 C31.9394435,1.31342062 32.512275,1.63256956 32.7414075,1.75531915 C34.2716858,2.59819967 34.3944354,4.75859247 34.4026187,4.97135843 C34.492635,4.68494272 35.6382979,1.39525368 37.8477905,0.994271686 Z" id="Fill-16-Copy_1_" fill="#FFFFFF"></path>
            <path d="M47.8477905,9.54648118 C48.314239,8.4908347 49.2553191,7.77888707 50.2454992,7.77064833 C51.3747954,7.76252046 52.1440262,8.66268412 52.3567921,8.91636661 C52.7577741,9.39099836 52.9541735,9.87381342 53.0441899,10.1765957 C53.314239,9.86563011 53.9198036,9.26006547 54.8772504,9.0309329 C56.0229133,8.75270049 57.7659574,8.99001637 58.0769231,10.0047463 C58.3306056,10.8148936 57.6268412,12.0260229 56.2438625,12.6315876 C58.5106383,12.0751227 60.2454992,12.9998363 60.4173486,13.9490998 C60.5564648,14.7101473 59.7217676,15.7166939 58.4697218,16.3468085 C58.5679214,16.2486088 59.4026187,15.4057283 59.1571195,14.6283142 C58.9443535,13.9654664 58.0769231,13.7527005 57.2094926,13.5399345 C56.2111293,13.2944354 55.3355155,13.3435352 54.7545008,13.4253682 C56.0392799,12.3451718 56.6121113,11.2649755 56.3011457,10.7412439 C56.0474632,10.3075286 55.2454992,10.3320786 55.0409165,10.3402619 C53.5515548,10.3893617 52.6513912,11.8459902 52.5286416,12.0587561 C52.8477905,10.8558101 52.3240589,9.58739771 51.2684124,8.97364975 C50.1718494,8.32716858 48.7234043,8.56448445 47.8477905,9.54648118 Z" id="Path" fill="#C1C1C1"></path>
            <path d="M57.594108,37.3697218 C58.5188216,36.387725 58.5106383,35.2011457 58.502455,34.9720131 C58.8788871,34.9720131 59.6481178,34.91473 60.4418985,34.4564648 C60.7937807,34.2600655 61.5630115,33.8181669 61.9476268,32.88527 C62.4549918,31.6823241 61.9394435,30.5448445 61.8412439,30.3320786 C62.7986907,31.011293 63.9770867,31.1176759 64.6972177,30.610311 C65.6873977,29.91473 65.9247136,27.9507365 64.5826514,26.5513912 C64.8199673,27.5415712 64.6808511,28.5726678 64.0752864,29.112766 C63.1505728,29.9310966 61.0720131,29.6937807 59.7626841,27.90982 C59.9836334,28.1389525 61.2765957,29.4728314 61.0556465,31.2731588 C61.0065466,31.6823241 60.8510638,32.9425532 59.8445172,33.4417349 C58.9770867,33.8672668 57.7741408,33.5726678 56.9067103,32.6643208 C57.7250409,34.5464812 57.1849427,36.4368249 56.1783961,36.9851064 C55.0327332,37.6152209 52.700491,36.788707 51.8085106,34.3991817 C52.2831424,36.813257 53.8870704,38.4090016 55.4255319,38.392635 C56.6121113,38.3844517 57.5368249,37.4270049 57.594108,37.3697218 Z" id="Path" fill="#C1C1C1"></path>
            <path d="M41.0556465,32.9589198 C41.4566285,34.0472995 41.2602291,35.209329 40.5482815,35.8967267 C39.7381342,36.6823241 38.5515548,36.5677578 38.2324059,36.5350245 C37.6104746,36.4777414 37.1440262,36.2567921 36.8657938,36.1013093 C36.8821604,36.5104746 36.8576105,37.3697218 36.3338789,38.1962357 C35.695581,39.1864157 34.2716858,40.2256956 33.3469722,39.7101473 C32.6104746,39.300982 32.2667758,37.9343699 32.8477905,36.5432079 C31.5957447,38.5153846 29.6972177,39.0391162 28.9198036,38.4826514 C28.289689,38.0325696 28.1914894,36.7232406 28.6661211,35.4057283 C28.6661211,35.5448445 28.6415712,36.7314239 29.3535188,37.1160393 C29.9590835,37.4515548 30.7364975,37.001473 31.5057283,36.5595745 C32.3977087,36.0440262 32.99509,35.4057283 33.3633388,34.9392799 C33.1833061,36.600491 33.5188216,37.7788871 34.1080196,37.9507365 C34.5908347,38.0898527 35.1472995,37.5170213 35.294599,37.3697218 C36.3338789,36.305892 35.9819967,34.6283142 35.9247136,34.3909984 C36.5220949,35.4793781 37.7823241,36.0358429 38.9689034,35.7494272 C40.2209493,35.4384615 41.1047463,34.2764321 41.0556465,32.9589198 Z" id="Path" fill="#C1C1C1"></path>
        </g>
        <g id="pig" transform="translate(0.000000, 1.000000)">
            <path d="M6.20294599,12.4713584 C6.20294599,12.4713584 -5.93289689,38.690671 19.198036,41.5302782 C44.3289689,44.3698854 45.7201309,25.8346972 41.1783961,13.608838 C36.0065466,-0.31096563 13.9770867,-3.22422259 6.20294599,12.4713584" id="Fill-17_1_" fill="#FF9893"></path>
            <path d="M14.7954173,32.3322422 C14.5908347,31.8085106 14.4599018,31.2274959 14.4189853,30.613748 C14.2144026,27.7823241 16.0392799,25.1554828 18.8216039,24.5335516 C22.193126,23.7725041 28.1833061,23.797054 29.5335516,27.7086743 C30.3273322,30.0163666 30.5400982,32.9869067 28.6006547,34.7708674 C26.6612111,36.5548282 23.5351882,36.7184943 21.0720131,36.5220949 C18.3387889,36.2929624 15.7528642,34.8445172 14.7954173,32.3322422" id="Fill-19_1_" fill="#FFC2C3"></path>
            <path d="M26.8412439,30.3600655 C26.8412439,31.2684124 26.3993453,31.9967267 25.8592471,31.9967267 C25.3191489,31.9967267 24.8772504,31.2684124 24.8772504,30.3600655 C24.8772504,29.4599018 25.3191489,28.7234043 25.8592471,28.7234043 C26.3993453,28.7234043 26.8412439,29.4599018 26.8412439,30.3600655" id="Fill-21_1_" fill="#CD2C3D"></path>
            <path d="M19.6399345,30.3600655 C19.6399345,31.2684124 19.198036,31.9967267 18.6579378,31.9967267 C18.1178396,31.9967267 17.6759411,31.2684124 17.6759411,30.3600655 C17.6759411,29.4599018 18.1178396,28.7234043 18.6579378,28.7234043 C19.198036,28.7234043 19.6399345,29.4599018 19.6399345,30.3600655" id="Fill-23_1_" fill="#CD2C3D"></path>
            <path d="M23.289689,39.198036 C22.0130933,39.198036 21.0883797,38.502455 21.0801964,38.4860884 C20.9410802,38.3797054 20.9165303,38.1751227 21.0065466,38.0278232 C21.1047463,37.8805237 21.2847791,37.8396072 21.4238953,37.9459902 C21.497545,38.0032733 23.1914894,39.2635025 25.0654664,37.9378069 C25.2045827,37.8396072 25.3927987,37.8805237 25.4828151,38.0360065 C25.5728314,38.1914894 25.5319149,38.396072 25.3927987,38.4942717 C24.6563011,39.0261866 23.9279869,39.198036 23.289689,39.198036" id="Fill-25_1_" fill="#6C3730"></path>
            <path d="M18.3306056,20.5400982 C18.3306056,21.4402619 17.594108,22.1767594 16.6939444,22.1767594 C15.7937807,22.1767594 15.0572831,21.4402619 15.0572831,20.5400982 C15.0572831,19.6399345 15.7855974,18.903437 16.6939444,18.903437 C17.6022913,18.903437 18.3306056,19.6399345 18.3306056,20.5400982" id="Fill-27" fill="#560B0F"></path>
            <path d="M16.3666121,19.8854337 C16.3666121,20.0654664 16.2193126,20.212766 16.0392799,20.212766 C15.8592471,20.212766 15.7119476,20.0654664 15.7119476,19.8854337 C15.7119476,19.705401 15.8592471,19.5581015 16.0392799,19.5581015 C16.2193126,19.5581015 16.3666121,19.705401 16.3666121,19.8854337" id="Fill-29" fill="#FFFFFF"></path>
            <path d="M32.0785597,20.5400982 C32.0785597,21.4402619 31.3420622,22.1767594 30.4418985,22.1767594 C29.5417349,22.1767594 28.8052373,21.4402619 28.8052373,20.5400982 C28.8052373,19.6399345 29.5335516,18.903437 30.4418985,18.903437 C31.3420622,18.903437 32.0785597,19.6399345 32.0785597,20.5400982" id="Fill-31" fill="#560B0F"></path>
            <path d="M30.1145663,19.8854337 C30.1145663,20.0654664 29.9672668,20.212766 29.787234,20.212766 C29.6072013,20.212766 29.4599018,20.0654664 29.4599018,19.8854337 C29.4599018,19.705401 29.6072013,19.5581015 29.787234,19.5581015 C29.9672668,19.5581015 30.1145663,19.705401 30.1145663,19.8854337" id="Fill-33" fill="#FFFFFF"></path>
            <path d="M16.3666121,23.1587561 C16.3666121,23.6988543 15.4909984,24.1407529 14.4026187,24.1407529 C13.314239,24.1407529 12.4386252,23.6988543 12.4386252,23.1587561 C12.4386252,22.6186579 13.314239,22.1767594 14.4026187,22.1767594 C15.4909984,22.1767594 16.3666121,22.6186579 16.3666121,23.1587561" id="Fill-35" fill="#F25460"></path>
            <path d="M34.6972177,23.1587561 C34.6972177,23.6988543 33.8216039,24.1407529 32.7332242,24.1407529 C31.6448445,24.1407529 30.7692308,23.6988543 30.7692308,23.1587561 C30.7692308,22.6186579 31.6448445,22.1767594 32.7332242,22.1767594 C33.8216039,22.1767594 34.6972177,22.6186579 34.6972177,23.1587561" id="Fill-37" fill="#F25460"></path>
            <path d="M44.6644845,5.27823241 C44.4353519,6.24386252 41.8903437,13.8297872 38.2815057,12.594108 C38.2324059,12.5777414 38.1833061,12.5613748 38.1260229,12.5368249 C35.9328969,11.6448445 34.2880524,9.50900164 33.314239,7.92962357 C32.6595745,6.85761047 32.3158756,6.03109656 32.3158756,6.03109656 C32.3158756,6.03109656 38.8052373,-2.10310966 45.8101473,0.523731588 C47.9705401,2.19312602 45.3355155,2.44680851 44.6644845,5.27823241" id="Fill-39" fill="#FF9893"></path>
            <path d="M41.2520458,7.4304419 C41.1292962,7.9705401 39.9672668,11.603928 38.2160393,12.3567921 C38.1669394,12.3404255 38.1178396,12.3240589 38.0687398,12.299509 C35.9328969,11.3993453 34.3289689,9.24713584 33.3878887,7.65139116 C34.3453355,6.53846154 38.0523732,2.65957447 42.00491,4.19803601 C43.4206219,5.33551555 41.6939444,5.50736498 41.2520458,7.4304419" id="Fill-42_1_" fill="#FA7477"></path>
            <path d="M1.97217676,5.27823241 C2.20130933,6.23567921 4.72176759,13.8216039 8.31423895,12.594108 C8.36333879,12.5777414 8.41243863,12.5613748 8.46972177,12.5368249 C10.6546645,11.6448445 12.2831424,9.50900164 13.2487725,7.92962357 C13.903437,6.85761047 14.2553191,6.03109656 14.2553191,6.03109656 C14.2553191,6.03109656 7.79869067,-2.10310966 0.834697218,0.523731588 C-1.31751227,2.19312602 1.30114566,2.44680851 1.97217676,5.27823241" id="Fill-44_1_" fill="#FF9893"></path>
            <path d="M5.22913257,7.4304419 C5.35188216,7.9705401 6.51391162,11.603928 8.26513912,12.3567921 C8.31423895,12.3404255 8.36333879,12.3240589 8.41243863,12.299509 C10.5482815,11.3993453 12.1522095,9.24713584 13.0932897,7.65139116 C12.1358429,6.53846154 8.42880524,2.65957447 4.47626841,4.19803601 C3.06055646,5.33551555 4.78723404,5.50736498 5.22913257,7.4304419" id="Fill-47" fill="#FA7477"></path>
        </g>
    </g>
</svg>