<?xml version="1.0" encoding="UTF-8"?>
<svg width="100" viewBox="0 0 4774 3410" version="1.1" xmlns="http://www.w3.org/2000/svg" xmlns:xlink="http://www.w3.org/1999/xlink">
    <title>Hashie - eierlegende-Wollmilchsau</title>
    <g stroke="none" stroke-width="1" fill="none" fill-rule="evenodd" transform="translate(-883.000000, -794.000000)">
        <g id="eierlegende-Wollmilchsau" transform="translate(883.000000, 794.000000)">
            <g id="sheep-legs" transform="translate(1221.654400, 2288.832000)">
                <polygon id="Fill-1" fill="#5B5047" points="160.4 1089.6 267.6 1089.6 377.2 65.6 3.41060513e-13 0"></polygon>
                <polygon id="Fill-2" fill="#4A4847" points="151.2 1027.2 160.4 1089.6 267.6 1089.6 274 1027.2"></polygon>
                <polygon id="Fill-3" fill="#5B5047" points="421.6 168.8 499.6 1089.6 552 1089.6 604.4 1089.6 716.4 168.8"></polygon>
                <path d="M493.6,1020.8 L499.2,1089.6 L604,1089.6 L611.6,1026.4 C572.4,1025.2 533.2,1023.6 493.6,1020.8" id="Fill-4" fill="#4A4847"></path>
                <polygon id="Fill-6" fill="#5B5047" points="1624.7456 0.336 1785.1456 1089.536 1891.9456 1089.536 2001.9456 65.536"></polygon>
                <polygon id="Fill-9" fill="#4A4847" points="1775.6 1027.2 1784.8 1089.6 1892 1089.6 1898.8 1027.2"></polygon>
                <polygon id="Fill-11" fill="#5B5047" points="2046.3456 168.736 2123.9456 1089.536 2228.7456 1089.536 2341.1456 168.736"></polygon>
                <path d="M2118.4,1020.8 L2124,1089.6 L2228.8,1089.6 L2236.4,1026.4 C2197.2,1025.2 2157.6,1023.6 2118.4,1020.8" id="Fill-14" fill="#4A4847"></path>
            </g>
            <g id="cow" transform="translate(2232.000000, 2420.000000)" fill="#FF8979">
                <path d="M-1.13686838e-13,104.126478 L820.282437,2.84217094e-13 L820.928529,4.00209886 C824.497213,27.5631572 839.968813,151.053258 792.532339,264.74944 L795.434339,267.303315 C819.386368,288.650799 859.886117,331.497079 836.511592,360.065292 C817.782646,383.306536 783.330475,354.985001 758.144748,327.736627 C740.922646,352.433909 719.495355,375.461873 692.939911,395.441787 L695.21446,398.182739 C719.944404,428.2302 750.91613,474.097207 718.12972,482.989547 C686.187699,491.652872 654.939382,455.711817 636.743187,429.032473 L636.77622,429.055636 C623.35501,435.340929 609.007409,440.991981 593.671823,445.918453 L594.190668,448.379956 C601.527762,483.841912 604.37694,526.7061 576.736414,531.133632 C546.698531,535.722641 534.099598,493.323069 528.88476,461.204411 C506.910997,464.768213 483.309374,467.050749 457.999335,467.910327 L470.92419,467.335755 L471.23057,472.047155 C473.387836,509.30463 469.52965,554.018323 437.675747,549.478408 C404.01892,544.681534 397.475098,500.149445 397.296182,467.453372 C371.531671,466.133155 347.436374,463.35368 324.902039,459.321577 L324.243029,461.727848 C314.308392,497.542168 297.283021,538.327385 273.030556,527.011517 C248.16309,515.431612 254.62846,475.141913 263.974273,444.34217 C239.966899,436.684456 218.140822,427.440437 198.297107,416.978958 L196.650447,420.348919 C179.570865,454.92237 155.049858,492.697377 135.494103,475.675328 C114.611872,457.310806 131.552809,414.661074 147.604738,384.668149 C138.80818,377.988672 130.546825,371.044446 122.776142,363.904203 L121.184371,365.823382 C98.2120257,393.269417 68.606104,417.708777 47.3136094,396.33076 C21.7256451,370.640021 48.5706312,330.252127 71.1257223,304.57973 C13.343153,221.492384 2.34944176,133.255952 0.397364296,110.010109 L0.0941494293,105.89555 L-1.13686838e-13,104.126478 Z" id="utter"></path>
            </g>
            <g id="hen" transform="translate(2698.000000, 495.000000)">
                <g id="eggs" transform="translate(957.000000, 2340.000000)">
                    <g id="egg" transform="translate(544.000000, 68.000000)">
                        <g id="Group-3" fill="#F2C48D">
                            <path d="M241.8,444.6 C117.4,453 9.8,360.2 1.4,237.4 C-7,115 87.4,9 211.8,0.6 C336.2,-7.8 565.4,77 573.8,199.4 C582.2,321.8 366.2,436.2 241.8,444.6" id="Fill-1_1_"></path>
                        </g>
                        <path d="M433.8,101.4 C453.8,111.4 471,124.2 486.2,140.2 C495.4,149.8 510.2,135.4 501,125.8 C484.6,108.6 465.4,94.6 444.2,83.8 C432.2,77.4 421.8,95.4 433.8,101.4" id="Fill-6_1_" fill="#FFFFFF"></path>
                        <path d="M511.8,143.8 C511.4,143.8 510.6,143.8 510.2,143.8 C504.6,144.2 499.4,148.2 499.8,154.2 C500.2,159.4 504.6,165 510.2,164.6 C510.6,164.6 511.4,164.6 511.8,164.6 C517.4,164.2 522.6,160.2 522.2,154.2 C522.2,149 517.8,143.8 511.8,143.8" id="Fill-8_1_" fill="#FFFFFF"></path>
                        <path d="M519.8,314.6 C447.8,370.6 346.6,410.2 275,415 C150.6,423.4 43,330.6 34.6,207.8 C30.6,145 53.4,86.2 93.8,43 C33.4,86.6 -3.8,158.6 1.4,237.4 C9.8,359.8 117.4,452.6 241.8,444.6 C325.4,439 449.4,385.8 519.8,314.6" id="Fill-4_1_" fill="#E3B884"></path>
                    </g>
                    <g id="egg">
                        <path d="M427.4,232.6 C475.4,344.2 425.4,473.8 315.4,522.6 C205.8,571.4 78.2,520.2 30.2,409 C-17.4,297.4 -14.2,58.6 95.4,9.8 C205,-38.6 379.8,121 427.4,232.6" id="Fill-10" fill="#FFDEB6"></path>
                        <path d="M51,169.4 C53.4,149 59.8,129.4 69,111 C75,99.4 57.4,89 51.8,100.6 C41,122.2 34.2,145 31,169.4 C29,182.6 49.4,182.2 51,169.4" id="Fill-14_1_" fill="#FFFFFF"></path>
                        <path d="M65.4,87 C65.8,87.4 65.8,88.2 66.2,88.6 C68.2,93.4 75.8,95 79.8,92.2 C85,89 85.8,83.4 83.4,78.2 C83,77.8 83,77 82.6,76.6 C80.6,71.8 73,70.2 69,73 C63.8,76.2 63,81.8 65.4,87" id="Fill-16" fill="#FFFFFF"></path>
                        <path d="M218.6,21 C293.4,68.2 362.6,148.2 389.8,212.2 C437.8,323.8 387.8,453.4 277.8,502.2 C221.4,527.4 160.2,525.8 107.4,503.4 C167,544.2 245,554.2 315.4,523 C425,474.2 475,344.6 427.4,233 C395.4,157.8 306.6,61.8 218.6,21" id="Fill-12" fill="#F6CD9B"></path>
                    </g>
                    <g id="egg" transform="translate(320.000000, 0.000000)">
                        <path d="M413.8,359.4 C408.2,483.8 311.4,580.2 197.4,574.2 C83.4,568.2 -4.6,462.2 1,337.8 C6.6,213 109,-5 223,1 C336.6,7 419.4,234.6 413.8,359.4" id="Fill-18_1_" fill="#FFCE95"></path>
                        <path d="M118.2,127.8 C129,110.2 142.2,94.6 157.8,82.2 C167.4,74.2 158.2,56.2 148.2,64.2 C129.8,79 114.2,96.6 101.8,117.4 C94.6,128.6 111.4,139 118.2,127.8" id="Fill-22" fill="#FFFFFF"></path>
                        <path d="M165,57 C165,57.4 165,58.2 165,58.6 C164.6,64.2 169.8,69.4 174.6,69 C180.2,68.6 183.8,64.6 184.2,58.6 C184.2,58.2 184.2,57.4 184.2,57 C184.6,51.4 179.4,46.2 174.6,46.6 C169,47 165.4,51.4 165,57" id="Fill-24_1_" fill="#FFFFFF"></path>
                        <path d="M323.4,67.8 C367.4,145.8 393.4,251 390.2,322.6 C384.6,447 287.8,543.4 173.8,537.4 C115,534.2 63.4,504.6 27.8,459.8 C61.4,525 124.2,570.2 197.4,573.8 C311.4,579.8 408.2,483.8 413.8,359 C417.4,275.8 381.8,146.2 323.4,67.8" id="Fill-20_1_" fill="#EDC08A"></path>
                    </g>
                </g>
                <g id="bum" transform="translate(1095.124944, 806.283040) rotate(-10.000000) translate(-1095.124944, -806.283040) translate(96.624944, 164.283040)" fill-rule="nonzero">
                    <path d="M1755.41178,146.918649 C1648.8644,87.5385502 1484.67663,92.7779707 1365.9025,70.0738151 C1295.01547,53.4539786 1226.40124,38.6086869 1152.60587,40.844257 C1042.1792,44.1895422 889.841689,110.926224 695.593324,241.054302 C350.900614,232.996767 124.600091,205.210557 16.6917559,157.695671 C13.1983992,555.89163 6.98671356,751.198482 -4.54747351e-12,1149.39444 C440.162954,1338.01358 817.445486,1341.50653 1219.18152,1065.56371 C1348.43572,988.718878 1484.67663,906.634623 1596.46405,807.085634 C1648.8644,765.17027 1725.71825,693.564856 1750.17175,635.93123 C1774.62524,578.297605 1743.18503,511.931612 1760.65182,464.776827 C1785.10531,363.481364 1902.13277,234.242324 1755.41178,146.918649 Z" id="Path" fill="#E5E3E3"></path>
                    <path d="M1102.24954,516.402014 C1136.23556,530.416658 1172.13693,539.241719 1208.74897,542.581068 C1245.70151,545.350571 1282.78665,539.371227 1316.99429,525.128365 C1334.15896,516.41376 1349.09197,503.874503 1360.64159,488.477691 C1370.05247,475.228239 1377.13733,460.473377 1381.5923,444.845935 C1413.8778,450.391323 1509.56114,458.16899 1582.36991,416.921611 C1613.98019,398.487515 1639.47795,371.178219 1655.69739,338.384451 C1670.71088,308.537918 1679.53481,281.573268 1680.62356,248.183516 C1789.58872,260.796741 1845.92255,249.405956 1911.72261,201.605824 C1977.52266,153.805693 1993.8504,95.7591166 1996.18864,39.3075211 C1929.74746,59.0703745 1838.06979,90.3672102 1680.13926,98.3226957 C1522.20874,106.278181 1425.99834,80.1861624 1357.90854,71.4598112 L1224.9595,48.0173073 C1191.48387,43.3058869 1187.45182,27.0789781 1154.62631,19 C1187.42506,27.6486056 1144.69333,516.619382 1112.72489,504.185123 C1079.60977,491.304858 1069.40096,502.856414 1102.24954,516.402014 Z" id="Path" fill="#8F8F8F"></path>
                    <path d="M1196.33938,23.1699903 C1410.33769,99.4898767 1651.59345,114.720486 1920.10666,68.8618179 C1939.20086,65.2958082 1958.82965,61.250741 1978.93894,56.6772551 L1984.1997,55.4712271 C1976.47236,99.2951721 1950.9638,163.338621 1859.03539,192.315647 C1797.74979,211.633664 1726.92374,219.792129 1646.55726,216.791043 C1642.22327,293.199266 1604.84825,351.596344 1534.43219,391.982278 C1464.01614,432.368211 1388.34297,437.302668 1307.41268,406.785649 C1330.90644,468.010349 1332.35442,503.385624 1311.75661,512.911474 C1303.49059,516.734252 1279.08559,523.501196 1279.1603,526.701465 C1189.88459,558.858515 718.056335,-133.159295 1196.33938,23.1699903 Z" id="Path" fill="#C1C1C1"></path>
                </g>
            </g>
            <g id="sheep-body" transform="translate(674.000000, 461.368000)">
                <path d="M263.2,1277.8 C263.2,1277.8 -134,1171.8 119.6,1538.6 C119.6,1538.6 -161.6,1742.2 138.8,1769.4 C138.8,1769.4 18.4,2149.8 263.2,2117 C508,2084.6 512,1920.632 512,1920.632 C512,1920.632 506,2114.632 604,2122.632 C702,2130.632 800.4,2059.8 800.4,2059.8 C800.4,2059.8 820.4,2263.4 954.8,2247.4 C1089.2,2231 1124,2084.632 1124,2084.632 C1124,2084.632 1116,2344.632 1264,2332.632 C1400.20172,2321.58862 1458.20172,2238.92195 1438,2084.632 C1505.73333,2217.67733 1578.53333,2279.93333 1656.4,2271.4 C1761.6,2260.2 1822.4,2164.2 1832,2149.4 C1832,2149.4 1877.2,2367 2016.8,2339.8 C2156.8,2312.6 2198.4,2141.4 2198.4,2141.4 C2198.4,2141.4 2218.8,2355.4 2395.6,2342.2 C2433.6,2339.4 2464.8,2321.4 2473.6,2315.4 C2554.8,2261.8 2556.4,2157.8 2556.4,2146.2 C2601.2,2214.6 2670,2245.8 2721.2,2227.8 C2731.6,2224.2 2752.4,2214.6 2770.8,2186.6 C2802.8,2215.8 2838.4,2243.4 2880.4,2253.8 C2956.4,2273 3016.8,2220.2 3023.2,2144.6 C3026.4,2107.4 3017.6,2070.6 3009.2,2034.2 C3069.2,2063.4 3136,2088.6 3201.2,2075.4 C3266.4,2062.2 3324.8,1995.8 3305.6,1931.8 C3316.4,1967.4 3446.8,1927 3463.2,1907.8 C3498.4,1866.6 3488,1789.4 3463.2,1745.8 C3534,1781.8 3629.2,1741 3661.6,1668.6 C3694.4,1596.2 3668.8,1505.8 3611.2,1451 C3666.4,1421 3701.2,1356.6 3695.6,1294.2 C3691.6,1245.8 3657.6,1169 3600.8,1167.4 C3632.4,1154.6 3654,1120.6 3652.4,1086.6 C3650.8,1052.6 3625.6,1021 3592.8,1011 C3650.8,997 3661.2,909.8 3622,864.6 C3582.8,819.4 3518,808.2 3458.4,804.6 C3517.6,795.8 3552,723 3534.4,665.8 C3516.8,608.6 3460.8,569.8 3402.8,555.8 C3468.8,522.6 3502.8,458.6 3489.6,405.8 C3479.2,364.6 3443.6,342.6 3437.2,338.6 C3397.6,315.4 3346.8,316.6 3303.6,342.2 C3348,282.2 3305.2,188.2 3236,159.8 C3166.8,131.4 3086.8,152.2 3020.8,187 C3046.4,121.8 2988.8,42.6 2919.2,37 C2849.2,31.4 2783.6,88.2 2767.6,156.6 C2762.4,79 2690.4,9.8 2612.8,13.8 C2535.2,17.8 2469.2,100.2 2487.6,175.8 C2480.4,115.4 2422,65.8 2361.2,67.8 C2300.4,69.8 2246,123.4 2242.8,184.2 C2245.2,135 2224.8,58.6 2182.8,28.6 C2121.6,-15 2061.6,48.6 2006.8,81 C1982,19 1904.4,-10.6 1839.6,5 C1774.8,20.6 1723.2,72.2 1691.6,130.6 C1668.4,60.6 1590,13.8 1517.2,26.6 C1444.4,39.8 1387.2,111 1390,184.6 C1337.6,160.2 1277.2,154.2 1220.8,166.6 C1210.4,169 1199.6,172.6 1192.8,181 C1185.2,190.6 1185.6,204.6 1186,217 C1188.8,263.4 1191.6,309.8 1194.4,356.6 C1155.2,323.4 1101.6,307.8 1050.8,315 C1043.2,391 1083.6,551 1172,571.8 C1170.4,571.4 772,476.6 759.6,571.8 C747.2,667 788.4,797.4 788.4,797.4 C788.4,797.4 554.8,609.8 492.4,699.4 C429.6,789 453.6,977.8 453.6,977.8 C453.6,977.8 360.8,863 272,886.2 C240.8,894.2 222.4,915.4 217.6,921 C128.4,1021.4 257.6,1267.8 263.2,1277.8 Z" id="Fill-16-Copy" fill="#C1C1C1"></path>
                <path d="M1850,48.6 C1862.4,46.2 1892,41 1922.4,55.8 C1971.2,79.8 1982.8,136.6 1984.4,145.8 C1988,139.8 2033.6,69 2101.2,69.4 C2172.4,69.4 2247.6,148.6 2244,258.6 C2244,187.8 2284.4,127.8 2336.8,112.2 C2407.2,91 2504,148.6 2518.8,253.8 C2505.6,151 2560.4,69 2614.4,59.4 C2674.4,49 2766.4,120.6 2772,242.6 C2775.6,219.8 2790,145.8 2853.6,103.4 C2868.4,93.8 2889.6,79.4 2916.4,82.2 C2956.4,86.6 2983.6,126.6 2993.2,155 C3009.6,205 2974,248.632 2936.8,307.8 C3032,209.132 3127.2,150.2 3202,179.4 C3209.2,182.2 3250.4,199 3266.8,240.2 C3288,293 3260.4,365 3194,417 C3236.5,390.632 3351.6,329.8 3406.4,362.6 C3413.6,367 3444.8,386.6 3451.2,421.4 C3461.6,475.4 3408.4,545 3311.6,580.6 C3368.8,558.2 3430,570.6 3466,610.2 C3469.6,614.2 3502.8,651.8 3496,697.4 C3487.2,756.2 3413.2,808.6 3316,803.4 C3358.4,800.6 3441.2,801.8 3520,851.8 C3542,865.8 3607.2,907 3600.4,945 C3594,981.4 3520.8,1007 3420.4,1008.2 C3511.6,1014.6 3587.6,1038.2 3593.2,1073 C3599.6,1112.2 3518,1170.2 3387.2,1207.4 C3494.4,1171.4 3591.6,1185 3626.4,1232.2 C3649.6,1263.8 3651.6,1299.8 3651.6,1299.8 C3653.6,1332.2 3642,1356.2 3637.2,1365.4 C3608.8,1422.2 3548,1439.8 3536,1443 C3589.2,1467.8 3624.8,1515.8 3627.6,1567.8 C3629.6,1602.6 3617.6,1641.8 3592.4,1664.6 C3538.8,1713 3416,1693.4 3300,1598.6 C3426.8,1722.6 3472.4,1846.2 3435.6,1891 C3391.6,1944.6 3232.4,1881.8 3224.8,1878.6 C3233.6,1905.4 3257.6,1989 3220.4,2025.4 C3177.2,2067.8 3055.2,2041.4 2930,1932.2 C3004.4,2023.4 3013.2,2126.2 2967.6,2177.4 C2963.2,2182.2 2932.4,2212.2 2891.2,2211.4 C2824,2210.2 2754.8,2129.8 2736,2008.2 C2752.8,2114.6 2748.8,2173.4 2724.4,2184.2 C2690.8,2198.6 2618.8,2125 2508.8,1963.4 C2572,2111 2505.2,2249.8 2428.8,2272.6 C2356.4,2294.2 2235.6,2224.2 2195.6,2083.4 C2158,2159 2123.6,2213.8 2093.2,2247 C2072.4,2269.8 2044.8,2289.8 2008.4,2297 C1934,2311.4 1874.8,2236.2 1831.6,2071.4 C1815.6,2099.8 1752,2205.4 1663.2,2206.2 C1597.6,2206.6 1550.4,2153 1477.2,2070.2 C1417.6,2002.2 1379.6,1937.8 1356.4,1893 C1368.8,1920.6 1384.4,1963 1394,2016.6 C1408,2097 1420,2163.4 1380,2213.4 C1344,2258.2 1272,2283 1218.4,2261 C1133.2,2225.8 1132.8,2087.8 1132.8,2042.6 C1132.8,1979 1148.8,1928.6 1161.2,1898.2 C1082.4,2083 964.4,2178.6 903.6,2156.6 C849.6,2137 825.6,2017 844.8,1876.6 C770.4,2016.2 664.8,2098.6 606.4,2078.6 C543.2,2057 504.4,1904.6 564.8,1713 C539.2,1804.2 502.4,1871.4 474.4,1915 C413.6,2009.4 364.4,2036.6 350.8,2044.2 C326.8,2057.4 298.4,2067.4 264,2072.6 L257.2,2073.4 C46.4,2101.4 181.6,1783.8 181.6,1783.8 C181.6,1783.8 192.8,1757.8 211.6,1724.6 C195.2,1727.8 172.8,1728.2 143.2,1725.4 C-83.2,1705 146.4,1575.4 146.4,1575.4 C146.4,1575.4 164.8,1565 189.2,1554.6 C178.8,1543 168.4,1529.4 157.2,1513.4 C6.8,1295.8 252.4,1321.4 252.4,1321.4 L384.4,1335.4 L296,1246.6 C296,1246.6 221.2,1171.8 209.6,1079.8 C204.4,1038.2 213.6,993.4 251.6,951 C328.8,865.8 419.2,1006.2 419.2,1006.2 L528.8,1175.8 L498.8,972.2 C498.8,972.2 474,805 529.6,725 C582.8,649 760.8,832.2 760.8,832.2 L889.6,964.6 L831.6,783.8 C831.6,783.8 794.8,669.4 804,583 C804.8,582.6 806,582.2 806.8,581.8 C833.6,571.8 858,573 872.4,574.2 C898,575.8 1018,586.6 1182,605.4 C1094.8,414.2 1086,365.8 1096.4,359.4 C1102,356.2 1117.6,363 1133.2,370.2 C1147.6,376.6 1158.4,384.6 1165.6,390.6 L1245.6,459 L1231.2,214.6 C1231.2,213.8 1227.2,210.6 1228.4,209 C1228.8,208.2 1231.2,210.6 1231.2,210.6 C1250.4,207 1274.8,204.2 1302.8,206.6 C1367.2,211.8 1414.4,239.4 1438,256.2 C1435.2,247.4 1413.2,167.4 1460.8,111 C1468,102.6 1489.2,77.4 1525.6,70.6 C1561.2,64.2 1589.2,79.8 1600.4,85.8 C1675.2,127 1681.2,232.6 1681.6,243 C1686,229 1742,68.2 1850,48.6 Z" id="Fill-16-Copy_1_" fill="#FFFFFF"></path>
                <path d="M2338.8,466.632 C2361.6,415.032 2407.6,380.232 2456,379.82929 C2511.2,379.432 2548.8,423.432 2559.2,435.832 C2578.8,459.032 2588.4,482.632 2592.8,497.432 C2606,482.232 2635.6,452.632 2682.4,441.432 C2738.4,427.832 2823.6,439.432 2838.8,489.032 C2851.2,528.632 2816.8,587.832 2749.2,617.432 C2860,590.232 2944.8,635.432 2953.2,681.832 C2960,719.032 2919.2,768.232 2858,799.032 C2862.8,794.232 2903.6,753.032 2891.6,715.032 C2881.2,682.632 2838.8,672.232 2796.4,661.832 C2747.6,649.832 2704.8,652.232 2676.4,656.232 C2739.2,603.432 2767.2,550.632 2752,525.032 C2739.6,503.832 2700.4,505.032 2690.4,505.432 C2617.6,507.832 2573.6,579.032 2567.6,589.432 C2583.2,530.632 2557.6,468.632 2506,438.632 C2452.4,407.032 2381.6,418.632 2338.8,466.632 Z" id="Path" fill="#C1C1C1"></path>
                <path d="M2815.2,1826.632 C2860.4,1778.632 2860,1720.632 2859.6,1709.432 C2878,1709.432 2915.6,1706.632 2954.4,1684.232 C2971.6,1674.632 3009.2,1653.032 3028,1607.432 C3052.8,1548.632 3027.6,1493.032 3022.8,1482.632 C3069.6,1515.832 3127.2,1521.032 3162.4,1496.232 C3210.8,1462.232 3222.4,1366.232 3156.8,1297.832 C3168.4,1346.232 3161.6,1396.632 3132,1423.032 C3086.8,1463.032 2985.2,1451.432 2921.2,1364.232 C2932,1375.432 2995.2,1440.632 2984.4,1528.632 C2982,1548.632 2974.4,1610.232 2925.2,1634.632 C2882.8,1655.432 2824,1641.032 2781.6,1596.632 C2821.6,1688.632 2795.2,1781.032 2746,1807.832 C2690,1838.632 2576,1798.232 2532.4,1681.432 C2555.6,1799.432 2634,1877.432 2709.2,1876.632 C2767.2,1876.232 2812.4,1829.432 2815.2,1826.632 Z" id="Path" fill="#C1C1C1"></path>
                <path d="M2006.8,1611.032 C2026.4,1664.232 2016.8,1721.032 1982,1754.632 C1942.4,1793.032 1884.4,1787.432 1868.8,1785.832 C1838.4,1783.032 1815.6,1772.232 1802,1764.632 C1802.8,1784.632 1801.6,1826.632 1776,1867.032 C1744.8,1915.432 1675.2,1966.232 1630,1941.032 C1594,1921.032 1577.2,1854.232 1605.6,1786.232 C1544.4,1882.632 1451.6,1908.232 1413.6,1881.032 C1382.8,1859.032 1378,1795.032 1401.2,1730.632 C1401.2,1737.432 1400,1795.432 1434.8,1814.232 C1464.4,1830.632 1502.4,1808.632 1540,1787.032 C1583.6,1761.832 1612.8,1730.632 1630.8,1707.832 C1622,1789.032 1638.4,1846.632 1667.2,1855.032 C1690.8,1861.832 1718,1833.832 1725.2,1826.632 C1776,1774.632 1758.8,1692.632 1756,1681.032 C1785.2,1734.232 1846.8,1761.432 1904.8,1747.432 C1966,1732.232 2009.2,1675.432 2006.8,1611.032 Z" id="Path" fill="#C1C1C1"></path>
            </g>
            <g id="pig">
                <path d="M303.2,609.6 C303.2,609.6 -290,1891.2 938.4,2030 C2166.8,2168.8 2234.8,1262.8 2012.8,665.2 C1760,-15.2 683.2,-157.6 303.2,609.6" id="Fill-17_1_" fill="#FF9893"></path>
                <path d="M723.2,1580.4 C713.2,1554.8 706.8,1526.4 704.8,1496.4 C694.8,1358 784,1229.6 920,1199.2 C1084.8,1162 1377.6,1163.2 1443.6,1354.4 C1482.4,1467.2 1492.8,1612.4 1398,1699.6 C1303.2,1786.8 1150.4,1794.8 1030,1785.2 C896.4,1774 770,1703.2 723.2,1580.4" id="Fill-19_1_" fill="#FFC2C3"></path>
                <path d="M1312,1484 C1312,1528.4 1290.4,1564 1264,1564 C1237.6,1564 1216,1528.4 1216,1484 C1216,1440 1237.6,1404 1264,1404 C1290.4,1404 1312,1440 1312,1484" id="Fill-21_1_" fill="#CD2C3D"></path>
                <path d="M960,1484 C960,1528.4 938.4,1564 912,1564 C885.6,1564 864,1528.4 864,1484 C864,1440 885.6,1404 912,1404 C938.4,1404 960,1440 960,1484" id="Fill-23_1_" fill="#CD2C3D"></path>
                <path d="M1138.4,1916 C1076,1916 1030.8,1882 1030.4,1881.2 C1023.6,1876 1022.4,1866 1026.8,1858.8 C1031.6,1851.6 1040.4,1849.6 1047.2,1854.8 C1050.8,1857.6 1133.6,1919.2 1225.2,1854.4 C1232,1849.6 1241.2,1851.6 1245.6,1859.2 C1250,1866.8 1248,1876.8 1241.2,1881.6 C1205.2,1907.6 1169.6,1916 1138.4,1916" id="Fill-25_1_" fill="#6C3730"></path>
                <path d="M896,1004 C896,1048 860,1084 816,1084 C772,1084 736,1048 736,1004 C736,960 771.6,924 816,924 C860.4,924 896,960 896,1004" id="Fill-27" fill="#560B0F"></path>
                <path d="M800,972 C800,980.8 792.8,988 784,988 C775.2,988 768,980.8 768,972 C768,963.2 775.2,956 784,956 C792.8,956 800,963.2 800,972" id="Fill-29" fill="#FFFFFF"></path>
                <path d="M1568,1004 C1568,1048 1532,1084 1488,1084 C1444,1084 1408,1048 1408,1004 C1408,960 1443.6,924 1488,924 C1532,924 1568,960 1568,1004" id="Fill-31" fill="#560B0F"></path>
                <path d="M1472,972 C1472,980.8 1464.8,988 1456,988 C1447.2,988 1440,980.8 1440,972 C1440,963.2 1447.2,956 1456,956 C1464.8,956 1472,963.2 1472,972" id="Fill-33" fill="#FFFFFF"></path>
                <path d="M800,1132 C800,1158.4 757.2,1180 704,1180 C650.8,1180 608,1158.4 608,1132 C608,1105.6 650.8,1084 704,1084 C757.2,1084 800,1105.6 800,1132" id="Fill-35" fill="#F25460"></path>
                <path d="M1696,1132 C1696,1158.4 1653.2,1180 1600,1180 C1546.8,1180 1504,1158.4 1504,1132 C1504,1105.6 1546.8,1084 1600,1084 C1653.2,1084 1696,1105.6 1696,1132" id="Fill-37" fill="#F25460"></path>
                <path d="M2183.2,258 C2172,305.2 2047.6,676 1871.2,615.6 C1868.8,614.8 1866.4,614 1863.6,612.8 C1756.4,569.2 1676,464.8 1628.4,387.6 C1596.4,335.2 1579.6,294.8 1579.6,294.8 C1579.6,294.8 1896.8,-102.8 2239.2,25.6 C2344.8,107.2 2216,119.6 2183.2,258" id="Fill-39" fill="#FF9893"></path>
                <path d="M2016.4,363.2 C2010.4,389.6 1953.6,567.2 1868,604 C1865.6,603.2 1863.2,602.4 1860.8,601.2 C1756.4,557.2 1678,452 1632,374 C1678.8,319.6 1860,130 2053.2,205.2 C2122.4,260.8 2038,269.2 2016.4,363.2" id="Fill-42_1_" fill="#FA7477"></path>
                <path d="M96.4,258 C107.6,304.8 230.8,675.6 406.4,615.6 C408.8,614.8 411.2,614 414,612.8 C520.8,569.2 600.4,464.8 647.6,387.6 C679.6,335.2 696.8,294.8 696.8,294.8 C696.8,294.8 381.2,-102.8 40.8,25.6 C-64.4,107.2 63.6,119.6 96.4,258" id="Fill-44_1_" fill="#FF9893"></path>
                <path d="M255.6,363.2 C261.6,389.6 318.4,567.2 404,604 C406.4,603.2 408.8,602.4 411.2,601.2 C515.6,557.2 594,452 640,374 C593.2,319.6 412,130 218.8,205.2 C149.6,260.8 234,269.2 255.6,363.2" id="Fill-47" fill="#FA7477"></path>
            </g>
        </g>
    </g>
</svg>